# xmcd
#
# Track frame offsets:
#	150
#	17104
#	29681
#	47158
#	65713
#	76392
#	91360
#	107950
#	122467
#	137464
#	149465
#	170892
#	185687
#	203303
#	221190
#	238816
#	257645
#	274482
#	287634
#	307431
#
# Disc length: 4320 seconds
#
# Revision: 0
# Processed by: cddbd v1.5.1PL0 Copyright (c) Steve Scherf et al.
# Submitted via: EasyCDDAExtractor 7.7.1.2
#
DISCID=4110de14
DTITLE=Kenny Rogers - Through The Years [CD 3)
DYEAR=1998
DGENRE=Country
TTITLE0=Love Lifted Me
TTITLE1=Laura (What's He Got That I Ain't Got)
TTITLE2=While The feeling's Good
TTITLE3=Sweet Music Man
TTITLE4=Anyone Who Isn't Me Tonight
TTITLE5='Til I Can Make It On My Own
TTITLE6=Don't Fall In Love with A Dreamer
TTITLE7=Love The World Away
TTITLE8=Share Your Love With Me
TTITLE9=Blaze Of Glory
TTITLE10=Through The Years
TTITLE11=Love Song
TTITLE12=All My Life
TTITLE13=Scarlet Fever
TTITLE14=You Were A Good Friend
TTITLE15=Buried Treasure
TTITLE16=The Greatest Gift Of All
TTITLE17=Together Again
TTITLE18=What About Me
TTITLE19=Eyes That See In the Dark
EXTD=
EXTT0=
EXTT1=
EXTT2=
EXTT3=
EXTT4=
EXTT5=
EXTT6=
EXTT7=
EXTT8=
EXTT9=
EXTT10=
EXTT11=
EXTT12=
EXTT13=
EXTT14=
EXTT15=
EXTT16=
EXTT17=
EXTT18=
EXTT19=
PLAYORDER=
